<?xml version="1.0" encoding="utf-8"?>
<!-- Generator: Adobe Illustrator 24.1.2, SVG Export Plug-In . SVG Version: 6.00 Build 0)  -->
<svg version="1.1" xmlns="http://www.w3.org/2000/svg" xmlns:xlink="http://www.w3.org/1999/xlink" x="0px" y="0px"
	 viewBox="0 0 1280 720" style="enable-background:new 0 0 1280 720;" xml:space="preserve">
<style type="text/css">
	.st0{clip-path:url(#SVGID_3_);fill:url(#SVGID_4_);}
	.st1{clip-path:url(#SVGID_3_);fill:url(#SVGID_5_);}
	.st2{clip-path:url(#SVGID_3_);fill:url(#SVGID_6_);}
	.st3{clip-path:url(#SVGID_3_);fill:url(#SVGID_7_);}
	.st4{clip-path:url(#SVGID_3_);fill:url(#SVGID_8_);}
</style>
<g id="Background">
	<g>
		<defs>
			<rect id="SVGID_1_" width="1280" height="720"/>
		</defs>
		<linearGradient id="SVGID_2_" gradientUnits="userSpaceOnUse" x1="955.8846" y1="-187.1281" x2="324.1154" y2="907.1281">
			<stop  offset="0" style="stop-color:#FF6B6B"/>
			<stop  offset="1" style="stop-color:#3B9A80"/>
		</linearGradient>
		<use xlink:href="#SVGID_1_"  style="overflow:visible;fill:url(#SVGID_2_);"/>
		<clipPath id="SVGID_3_">
			<use xlink:href="#SVGID_1_"  style="overflow:visible;"/>
		</clipPath>
		<linearGradient id="SVGID_4_" gradientUnits="userSpaceOnUse" x1="0" y1="541.0529" x2="1280" y2="541.0529">
			<stop  offset="0" style="stop-color:#FFFFFF"/>
			<stop  offset="3.750664e-02" style="stop-color:#E4F1EE"/>
			<stop  offset="0.102" style="stop-color:#BDDDD4"/>
			<stop  offset="0.173" style="stop-color:#9ACBBD"/>
			<stop  offset="0.2498" style="stop-color:#7CBCAA"/>
			<stop  offset="0.3345" style="stop-color:#64AF9B"/>
			<stop  offset="0.4302" style="stop-color:#52A68F"/>
			<stop  offset="0.5433" style="stop-color:#459F86"/>
			<stop  offset="0.6907" style="stop-color:#3D9B81"/>
			<stop  offset="1" style="stop-color:#3B9A80"/>
		</linearGradient>
		<rect y="331.1" class="st0" width="1280" height="419.9"/>
		<linearGradient id="SVGID_5_" gradientUnits="userSpaceOnUse" x1="-53.9041" y1="311.3707" x2="1736.1995" y2="311.3707">
			<stop  offset="0" style="stop-color:#FFFFFF"/>
			<stop  offset="7.197598e-02" style="stop-color:#DFEBE7"/>
			<stop  offset="0.1867" style="stop-color:#B1CFC7"/>
			<stop  offset="0.3061" style="stop-color:#8AB6AA"/>
			<stop  offset="0.4287" style="stop-color:#6BA393"/>
			<stop  offset="0.5554" style="stop-color:#529382"/>
			<stop  offset="0.6881" style="stop-color:#418975"/>
			<stop  offset="0.8305" style="stop-color:#36826D"/>
			<stop  offset="1" style="stop-color:#33806B"/>
		</linearGradient>
		<path class="st1" d="M1301.9,369.5c-170.1,174-374.1,65.3-439.8,34.1c-151.3-72-292.7-94.6-469.9,7
			C56.8,602.8-53.9,374.2-53.9,374.2V135.3h1790.1C1736.2,135.3,1485.9,181.3,1301.9,369.5z"/>
		<linearGradient id="SVGID_6_" gradientUnits="userSpaceOnUse" x1="-0.4739" y1="190.9069" x2="1638.8741" y2="190.9069">
			<stop  offset="0" style="stop-color:#FFFFFF"/>
			<stop  offset="1.465082e-02" style="stop-color:#F6FBF9"/>
			<stop  offset="9.645175e-02" style="stop-color:#CBE4DD"/>
			<stop  offset="0.1845" style="stop-color:#A4D0C4"/>
			<stop  offset="0.2777" style="stop-color:#83BFAF"/>
			<stop  offset="0.3776" style="stop-color:#69B29E"/>
			<stop  offset="0.4866" style="stop-color:#54A790"/>
			<stop  offset="0.6094" style="stop-color:#46A087"/>
			<stop  offset="0.7576" style="stop-color:#3E9B82"/>
			<stop  offset="1" style="stop-color:#3B9A80"/>
		</linearGradient>
		<path class="st2" d="M-0.5,309.9c0,0,195.3,173.8,485.5,35.5s512-272.6,745.2-142.1s408.7-33.6,408.7-33.6V-17H-0.5V309.9z"/>
		<linearGradient id="SVGID_7_" gradientUnits="userSpaceOnUse" x1="201.3427" y1="-2.2601" x2="1730.8566" y2="-2.2601">
			<stop  offset="0" style="stop-color:#FFFFFF"/>
			<stop  offset="8.367573e-02" style="stop-color:#D6EAE5"/>
			<stop  offset="0.1838" style="stop-color:#ADD5CA"/>
			<stop  offset="0.29" style="stop-color:#8AC3B3"/>
			<stop  offset="0.4016" style="stop-color:#6DB4A1"/>
			<stop  offset="0.5202" style="stop-color:#57A892"/>
			<stop  offset="0.649" style="stop-color:#47A088"/>
			<stop  offset="0.7958" style="stop-color:#3E9B82"/>
			<stop  offset="1" style="stop-color:#3B9A80"/>
		</linearGradient>
		<path class="st3" d="M675.2,186.7c271.5-108.5,454.1-212.5,656-70.3c196.3,138.2,383.9-15.6,383.9-15.6l15.7-185.6L201.3-217.8
			C201.3-217.8,293.2,339.5,675.2,186.7z"/>
		<linearGradient id="SVGID_8_" gradientUnits="userSpaceOnUse" x1="-137.4814" y1="675.6401" x2="1280" y2="675.6401">
			<stop  offset="0" style="stop-color:#FFFFFF"/>
			<stop  offset="1" style="stop-color:#33806B"/>
		</linearGradient>
		<path class="st4" d="M1280,467.8c0,0-93.9,289-477.9,121.9S275.9,532.1,136.5,679C17.6,804.3-16.1,816.3-137.5,883.5H1280V467.8z"
			/>
	</g>
</g>
<g id="Elements">
</g>
<g id="Text">
</g>
</svg>
